<svg xmlns="http://www.w3.org/2000/svg" xmlns:xlink="http://www.w3.org/1999/xlink" 
			version="1.1" width="2200" height="1200" viewBox="0 0 1100 600" id="svg-draw"><defs id="SvgjsDefs1001"></defs><g id="svg-body" transform="matrix(1,0,0,1,460.35247802734375,205.56103515625)">				<g id="svg-logo" class="svg-element" data-type="logo" transform="matrix(1,0,0,1,8.897514343261719,0)">
					<g class="svg-shape" transform="matrix(0.3051688035956611,0,0,0.30516880359566106,7.415602858675846,-36.162498569579434)"><g>
<g>
	<linearGradient id="SVGID_1_" gradientUnits="userSpaceOnUse" x1="183.5869" y1="153.587" x2="183.5869" y2="369.3774">
		<stop offset="0" style="stop-color:#FAB920"></stop>
		<stop offset="0.9987" style="stop-color:#EA4D12"></stop>
	</linearGradient>
	<path fill="url(#SVGID_1_)" d="M307.5,262.8c5.3-35.9,44.9-73.2,44.9-73.3c-21.9-42.2-66-71-116.8-71
		c-63.7,0-116.8,45.3-128.9,105.4c-35.2,8.4-61.4,40-61.4,77.8c0,7.9,1.1,15.4,3.3,22.6c-41.1,3.7-41.1-18.3-41.1-18.3
		c-31.8,33,49.3,36.8,49.3,36.8c205.4-7.7,231-105.4,231-105.4l-31.2-5.6c17.1-6.5,60-39.5,60-39.5C297,336,153.9,367.3,85.8,371.1
		c0.1,0.1,0.2,0.1,0.3,0.2c-12.4,0.5-29.2,0.3-49.1-2.2c0,0,33.3,8.5,65.4,9.1c7.2,2.1,14.9,3.3,22.8,3.3c17.9,0,87.7,0,110.4,0
		c72.7,0,131.5-58.9,131.5-131.5c0-16.2-2.9-31.6-8.2-45.9L307.5,262.8z"></path>
	<linearGradient id="SVGID_2_" gradientUnits="userSpaceOnUse" x1="234.9871" y1="199.1471" x2="233.9962" y2="136.7203">
		<stop offset="0" style="stop-color:#FAB920;stop-opacity:0"></stop>
		<stop offset="0.9987" style="stop-color:#EA4D12"></stop>
	</linearGradient>
	<path fill="url(#SVGID_2_)" d="M332.9,195.8c0,0-43.8-11.2-97.9-11.2S137,195.8,137,195.8s25.3-63.8,97.9-63.8
		S332.9,195.8,332.9,195.8z"></path>
	<linearGradient id="SVGID_3_" gradientUnits="userSpaceOnUse" x1="316.5981" y1="244.9012" x2="316.5981" y2="373.1065">
		<stop offset="0" style="stop-color:#01ACE6"></stop>
		<stop offset="1" style="stop-color:#006495"></stop>
	</linearGradient>
	<path fill="url(#SVGID_3_)" d="M403.1,187.8c-41.3,0-76.6,25.8-90.5,62.2l0,0c-15.2,33.7-32.1,131.5-179.4,131.5h269.9
		c53.5,0,96.9-43.4,96.9-96.9S456.6,187.8,403.1,187.8z"></path>
	<g>
		<linearGradient id="SVGID_4_" gradientUnits="userSpaceOnUse" x1="321.4911" y1="289.0276" x2="136.3248" y2="387.4348">
			<stop offset="0" style="stop-color:#00FFFF"></stop>
			<stop offset="1" style="stop-color:#006495"></stop>
		</linearGradient>
		<path fill="url(#SVGID_4_)" d="M307.5,262.8c-15.2,40.7-42.8,118.8-174.3,118.8h73.6C293.7,348.9,298.7,291.8,307.5,262.8z"></path>
		<linearGradient id="SVGID_5_" gradientUnits="userSpaceOnUse" x1="311.1367" y1="253.4445" x2="311.1362" y2="253.4448">
			<stop offset="0" style="stop-color:#00FFFF"></stop>
			<stop offset="1" style="stop-color:#006495"></stop>
		</linearGradient>
		<polygon fill="url(#SVGID_5_)" points="311.1,253.4 311.1,253.4 311.1,253.4 		"></polygon>
	</g>
	<linearGradient id="SVGID_6_" gradientUnits="userSpaceOnUse" x1="372.5515" y1="349.885" x2="515.29" y2="222.0452">
		<stop offset="0" style="stop-color:#01ACE6;stop-opacity:0"></stop>
		<stop offset="1" style="stop-color:#6EC9EF"></stop>
	</linearGradient>
	<path fill="url(#SVGID_6_)" d="M326,381.5h77.1c53.5,0,96.9-43.4,96.9-96.9c0-39.8-24-74-58.3-88.9
		C443.7,238.4,431.7,320.8,326,381.5z"></path>
	<linearGradient id="SVGID_7_" gradientUnits="userSpaceOnUse" x1="403.5937" y1="165.1214" x2="403.5937" y2="261.2525">
		<stop offset="0" style="stop-color:#FFFFFF"></stop>
		<stop offset="1" style="stop-color:#FFFFFF;stop-opacity:0"></stop>
	</linearGradient>
	<path fill="url(#SVGID_7_)" d="M485.8,282.9c0,45.4-36.8-32.9-82.2-32.9s-82.2,78.3-82.2,32.9s36.8-82.2,82.2-82.2
		S485.8,237.5,485.8,282.9z"></path>
</g>
</g>
					<g></g>
					</g><rect id="SvgjsRect1010" width="160" height="80.28991408862099" class="svg-ghost" fill-opacity="0" stroke="#555555" stroke-opacity="0" stroke-width="0.8" stroke-dasharray="4,2"></rect></g>
				<g id="svg-name" class="svg-element" data-type="text" transform="matrix(1,0,0,1,13,102.2899169921875)">
					<g class="svg-shape" fill="#FAB920" data-text="晨曦软件" data-size="45" transform="matrix(0.898759634956243,0,0,0.8987595478652217,-0.3639976800138078,33.52822520739174)"><g transform="scale(0.045) translate(0, 0)"><path transform="translate(0,0) rotate(180) scale(-1, 1)" d="M9 -70l38 -40q72 46 125 111q46 62 60 138h51v-144q0 -10 -6 -18q-7 -10 -18 -17l36 -78q127 46 255 91l-2 56l-138 -33v143h31q85 -114 215 -169q75 -31 155 -43q72 -11 145 -15l13 58q-116 12 -223 52q53 20 103 49l-63 68h155v73h-702q0 18 1 38v115h682v73h-806v-163 q0 -54 -5 -107q-5 -45 -18 -88q-11 -32 -26 -63q-26 -45 -58 -87zM146 765v-285h611q29 -1 58 4q22 4 41 15q27 18 28 52v214h-738zM267 323v-70h601v70h-601zM272 693h485v-37h-485v37zM272 551v37h485v-37h-485zM578 139h208q-61 -39 -123 -74q-48 31 -85 74z"></path><path transform="translate(1000,0) rotate(180) scale(-1, 1)" d="M471 199h98v25q47 -34 104 -44l17 31q-45 29 -86 62l-35 -30v39h113q12 -100 39 -197q-38 -38 -82 -67l21 -43q43 19 84 43q4 -11 10 -21q18 -38 49 -68q26 -23 60 -23q11 1 22 6q17 9 28 24q16 22 29 46q18 33 36 68h-45q-14 -23 -33 -41q-11 -10 -26 -11q-24 6 -33 30 q-11 26 -18 54q30 31 55 67q29 44 56 90l-82 33q-25 -45 -52 -88q-9 48 -14 98h168v59h-175q-5 53 -7 107l-105 -1q2 -54 8 -106h-106v38q43 3 87 9l-8 54q-143 -18 -286 -22l1 -36q53 -10 108 -8v-35h-116v-59h80q-46 -48 -104 -77l12 -47l28 9v-45h15l-17 -83h174l-6 -45 q-2 -14 -10 -25q-10 -8 -22 -8l-86 5v-29q45 -23 96 -29q21 -2 43 0q21 2 39 13q15 12 22 30q8 22 10 45q4 48 7 98h-162l4 28h160v57h-238q38 16 71 43v-23zM71 728v-750h153q23 0 46 7q19 6 33 18q24 28 23 66v659h-255zM951 462v57h-242v38h195v64h-195v37h225v65h-158 q46 25 74 70l-101 36q-30 -51 -62 -100l6 -6h-96l16 14q-35 44 -66 90l-91 -44q23 -40 65 -60h-156v-65h226v-37h-196v-64h196v-38h-236v-57h596zM173 69v242h51v-242h-51zM173 636h51v-237h-51v237zM899 345l22 29q-41 38 -79 80l-61 -37q46 -56 118 -72z"></path><path transform="translate(2000,0) rotate(180) scale(-1, 1)" d="M951 -99l32 60q-100 66 -168 163q-70 106 -88 232q2 30 4 62q1 52 1 106h-125q-1 -53 -1 -104q-2 -73 -17 -143q-17 -67 -51 -128q-38 -64 -91 -116q-46 -43 -98 -81v7v143q65 14 131 33l1 67l-132 -19v116h108v92h-108v157h-114l18 44h213v95h-181q15 51 27 103l-128 12 q-12 -59 -28 -115h-104v-95h75q-33 -104 -80 -200v-93h178v-133q-96 -14 -191 -24l12 -95q89 12 179 30v-180h62q25 0 45 17q15 16 17 38l29 -56q93 47 173 114q74 65 121 152q44 -90 118 -157q72 -63 161 -104zM760 402l76 -24q40 50 76 105q26 43 47 89v94h-321 q22 64 41 130l-125 9q-27 -108 -67 -210q-35 -88 -82 -168l37 -35q96 72 153 179h238q-35 -86 -73 -169zM225 525v-134h-85q24 23 41 52q25 39 44 82z"></path><path transform="translate(3000,0) rotate(180) scale(-1, 1)" d="M924 506v96h-198v199h-133v-199h-75q20 68 36 138l-135 14q-24 -106 -58 -208q-29 -89 -67 -173l49 -25q86 62 135 158h115v-211h-279v-96h279v-301h66q30 0 51 21q16 20 16 46v234h234v96h-234v211h198zM353 788l-140 16q-34 -122 -83 -238q-49 -121 -116 -233l21 -76 q61 41 109 98v-455h68q26 0 46 17q22 21 22 51v613q42 101 73 207z"></path></g></g>
				<rect id="SvgjsRect1011" width="159.7949676513672" height="38.30063964081448" class="svg-ghost" fill-opacity="0" stroke="#555555" stroke-opacity="0" stroke-width="0.8" stroke-dasharray="4,2"></rect></g>
				
			</g></svg>